<?xml version="1.0" standalone="no"?>
<!DOCTYPE svg PUBLIC "-//W3C//DTD SVG 20010904//EN"
 "http://www.w3.org/TR/2001/REC-SVG-20010904/DTD/svg10.dtd">
<svg version="1.0" xmlns="http://www.w3.org/2000/svg"
 width="64.000000pt" height="64.000000pt" viewBox="0 0 64.000000 64.000000"
 preserveAspectRatio="xMidYMid meet">

<g transform="translate(0.000000,64.000000) scale(0.100000,-0.100000)"
fill="#000000" stroke="none">
<path d="M4 528 c-4 -6 1 -17 11 -25 27 -19 583 -19 610 0 44 33 9 37 -305 37
-222 0 -311 -3 -316 -12z"/>
<path d="M4 328 c-4 -6 1 -17 11 -25 27 -19 583 -19 610 0 44 33 9 37 -305 37
-222 0 -311 -3 -316 -12z"/>
<path d="M4 128 c-4 -6 1 -17 11 -25 27 -19 583 -19 610 0 44 33 9 37 -305 37
-222 0 -311 -3 -316 -12z"/>
</g>
</svg>
